<?xml version="1.0" encoding="UTF-8"?>
<!DOCTYPE svg PUBLIC "-//W3C//DTD SVG 1.1//EN" "http://www.w3.org/Graphics/SVG/1.1/DTD/svg11.dtd">
<!-- Creator: CorelDRAW 2020 (64-Bit) -->
<svg xmlns="http://www.w3.org/2000/svg" xml:space="preserve" width="710px" height="577px" version="1.1" style="shape-rendering:geometricPrecision; text-rendering:geometricPrecision; image-rendering:optimizeQuality; fill-rule:evenodd; clip-rule:evenodd"
viewBox="0 0 217.76 176.9"
 xmlns:xlink="http://www.w3.org/1999/xlink"
 xmlns:xodm="http://www.corel.com/coreldraw/odm/2003">
 <defs>
  <style type="text/css">
   <![CDATA[
    .fil0 {fill:#0E548B;fill-rule:nonzero}
    .fil1 {fill:#F4792B;fill-rule:nonzero}
   ]]>
  </style>
 </defs>
 <g id="图层_x0020_1">
  <metadata id="CorelCorpID_0Corel-Layer"/>
  <g>
   <path class="fil0" d="M113.52 99.46c0.41,-7.26 3.96,-13.66 9.33,-18.2 5.26,-4.45 12.34,-7.17 20.07,-7.17 7.72,0 14.81,2.72 20.07,7.17 5.36,4.54 8.92,10.94 9.33,18.19 0.41,7.47 -2.59,14.4 -7.85,19.54 -5.37,5.23 -13,8.51 -21.55,8.51 -8.54,0 -16.19,-3.28 -21.55,-8.51 -5.27,-5.14 -8.26,-12.07 -7.85,-19.53l0 0zm0 0l0 0 0 0z"/>
  </g>
  <g>
   <path class="fil1" d="M66.7 114.14c0.05,2.84 0.96,8.36 2.32,12.68 2.85,9.13 7.7,17.57 14.45,25.02 6.92,7.65 15.44,13.79 25.28,18.16 10.35,4.58 21.56,6.92 33.21,6.9 0.03,-0.01 0.08,-0.01 0.12,-0.01 11.39,0 22.67,-2.4 33.07,-7.01 9.84,-4.41 18.36,-10.58 25.27,-18.24 6.74,-7.47 11.58,-15.93 14.44,-25.06 1.44,-4.62 2.35,-9.3 2.72,-13.99 0.12,-1.63 0.18,-3.26 0.18,-4.9 0,-3 -0.21,-6.02 -0.63,-9 -1.27,-8.94 -4.42,-17.55 -9.22,-25.21 -4.44,-7.12 -10.15,-13.42 -16.81,-18.54l0.02 -0.01 -68.03 -52.23c-0.05,-0.05 -0.11,-0.09 -0.17,-0.14 -4.47,-3.42 -11.97,-3.41 -16.88,0.02 -4.96,3.47 -5.53,9.22 -1.12,12.84l-0.01 0.02 28.37 23.07 -86.48 0.09 -0.12 0c-7.14,0.01 -14.01,4.7 -15.37,10.63 -1.4,6.03 3.45,11.04 10.88,11.07l-0.01 0.03 43.84 -0.09 -78.22 60.04 -0.3 0.22c-7.38,5.65 -9.76,15.05 -5.12,20.99 4.72,6.05 14.75,6.06 22.2,0.04l42.69 -34.94c0,0 -0.62,4.72 -0.57,7.55l0 0zm109.69 15.79c-8.79,8.96 -21.11,14.05 -34.43,14.07 -13.34,0.03 -25.66,-5.01 -34.45,-13.96 -4.15,-4.16 -7.37,-9.2 -9.41,-14.72 -1.52,-4.19 -2.3,-8.61 -2.3,-13.07 0,-1.13 0.05,-2.25 0.15,-3.37 0.46,-5.43 2.07,-10.72 4.71,-15.48 2.65,-4.78 6.21,-9.01 10.46,-12.44 8.55,-6.97 19.43,-10.74 30.82,-10.76 11.39,-0.01 22.27,3.72 30.83,10.67 4.24,3.42 7.8,7.64 10.45,12.4 2.64,4.76 4.26,10.05 4.73,15.47 0.1,1.11 0.15,2.21 0.15,3.32 0,4.47 -0.79,8.92 -2.31,13.12 -2.03,5.53 -5.25,10.57 -9.39,14.75l-0.01 0zm0 0l0 0 0 0z"/>
  </g>
 </g>
</svg>
