<svg id="visual" viewBox="0 0 960 540" width="960" height="540" xmlns="http://www.w3.org/2000/svg"
    xmlns:xlink="http://www.w3.org/1999/xlink" version="1.1">
    <path
        d="M0 66L26.7 59.7C53.3 53.3 106.7 40.7 160 41.5C213.3 42.3 266.7 56.7 320 66.5C373.3 76.3 426.7 81.7 480 84.3C533.3 87 586.7 87 640 77.2C693.3 67.3 746.7 47.7 800 47.7C853.3 47.7 906.7 67.3 933.3 77.2L960 87L960 0L933.3 0C906.7 0 853.3 0 800 0C746.7 0 693.3 0 640 0C586.7 0 533.3 0 480 0C426.7 0 373.3 0 320 0C266.7 0 213.3 0 160 0C106.7 0 53.3 0 26.7 0L0 0Z"
        fill="#001b98"></path>
    <path
        d="M0 109L26.7 107.2C53.3 105.3 106.7 101.7 160 100.8C213.3 100 266.7 102 320 113.7C373.3 125.3 426.7 146.7 480 149.3C533.3 152 586.7 136 640 117.2C693.3 98.3 746.7 76.7 800 77.5C853.3 78.3 906.7 101.7 933.3 113.3L960 125L960 85L933.3 75.2C906.7 65.3 853.3 45.7 800 45.7C746.7 45.7 693.3 65.3 640 75.2C586.7 85 533.3 85 480 82.3C426.7 79.7 373.3 74.3 320 64.5C266.7 54.7 213.3 40.3 160 39.5C106.7 38.7 53.3 51.3 26.7 57.7L0 64Z"
        fill="#0b3ac2"></path>
    <path
        d="M0 174L26.7 201C53.3 228 106.7 282 160 306.3C213.3 330.7 266.7 325.3 320 310.8C373.3 296.3 426.7 272.7 480 247.3C533.3 222 586.7 195 640 197.8C693.3 200.7 746.7 233.3 800 240.7C853.3 248 906.7 230 933.3 221L960 212L960 123L933.3 111.3C906.7 99.7 853.3 76.3 800 75.5C746.7 74.7 693.3 96.3 640 115.2C586.7 134 533.3 150 480 147.3C426.7 144.7 373.3 123.3 320 111.7C266.7 100 213.3 98 160 98.8C106.7 99.7 53.3 103.3 26.7 105.2L0 107Z"
        fill="#0859ed"></path>
    <path
        d="M0 244L26.7 262.8C53.3 281.7 106.7 319.3 160 335.5C213.3 351.7 266.7 346.3 320 330.2C373.3 314 426.7 287 480 270C533.3 253 586.7 246 640 254.2C693.3 262.3 746.7 285.7 800 286.5C853.3 287.3 906.7 265.7 933.3 254.8L960 244L960 210L933.3 219C906.7 228 853.3 246 800 238.7C746.7 231.3 693.3 198.7 640 195.8C586.7 193 533.3 220 480 245.3C426.7 270.7 373.3 294.3 320 308.8C266.7 323.3 213.3 328.7 160 304.3C106.7 280 53.3 226 26.7 199L0 172Z"
        fill="#5468ff"></path>
    <path
        d="M0 320L26.7 336.2C53.3 352.3 106.7 384.7 160 409.8C213.3 435 266.7 453 320 448.5C373.3 444 426.7 417 480 391.8C533.3 366.7 586.7 343.3 640 337.8C693.3 332.3 746.7 344.7 800 340.2C853.3 335.7 906.7 314.3 933.3 303.7L960 293L960 242L933.3 252.8C906.7 263.7 853.3 285.3 800 284.5C746.7 283.7 693.3 260.3 640 252.2C586.7 244 533.3 251 480 268C426.7 285 373.3 312 320 328.2C266.7 344.3 213.3 349.7 160 333.5C106.7 317.3 53.3 279.7 26.7 260.8L0 242Z"
        fill="#0859ed"></path>
    <path
        d="M0 492L26.7 493.8C53.3 495.7 106.7 499.3 160 502.2C213.3 505 266.7 507 320 507C373.3 507 426.7 505 480 499.5C533.3 494 586.7 485 640 479.7C693.3 474.3 746.7 472.7 800 477.2C853.3 481.7 906.7 492.3 933.3 497.7L960 503L960 291L933.3 301.7C906.7 312.3 853.3 333.7 800 338.2C746.7 342.7 693.3 330.3 640 335.8C586.7 341.3 533.3 364.7 480 389.8C426.7 415 373.3 442 320 446.5C266.7 451 213.3 433 160 407.8C106.7 382.7 53.3 350.3 26.7 334.2L0 318Z"
        fill="#0b3ac2"></path>
    <path
        d="M0 541L26.7 541C53.3 541 106.7 541 160 541C213.3 541 266.7 541 320 541C373.3 541 426.7 541 480 541C533.3 541 586.7 541 640 541C693.3 541 746.7 541 800 541C853.3 541 906.7 541 933.3 541L960 541L960 501L933.3 495.7C906.7 490.3 853.3 479.7 800 475.2C746.7 470.7 693.3 472.3 640 477.7C586.7 483 533.3 492 480 497.5C426.7 503 373.3 505 320 505C266.7 505 213.3 503 160 500.2C106.7 497.3 53.3 493.7 26.7 491.8L0 490Z"
        fill="#001b98"></path>
</svg>