<?xml version="1.0" encoding="UTF-8"?>
<!DOCTYPE svg PUBLIC "-//W3C//DTD SVG 1.1//EN" "http://www.w3.org/Graphics/SVG/1.1/DTD/svg11.dtd">
<!-- Creator: CorelDRAW 2020 (64-Bit) -->
<svg xmlns="http://www.w3.org/2000/svg" xml:space="preserve" width="977px" height="1062px" version="1.1" style="shape-rendering:geometricPrecision; text-rendering:geometricPrecision; image-rendering:optimizeQuality; fill-rule:evenodd; clip-rule:evenodd"
viewBox="0 0 181.83 197.8"
 xmlns:xlink="http://www.w3.org/1999/xlink"
 xmlns:xodm="http://www.corel.com/coreldraw/odm/2003">
 <defs>
  <style type="text/css">
   <![CDATA[
    .fil0 {fill:#0063A3}
   ]]>
  </style>
 </defs>
 <g id="图层_x0020_1">
  <metadata id="CorelCorpID_0Corel-Layer"/>
  <path id="path9" class="fil0" d="M181.83 43.07l-64.38 -37.11c0,0 -10.2,-5.96 -26.47,-5.96 -16.95,0 -26.76,6.14 -26.76,6.14l-59.64 34.13 90.73 52.15 0 105.38 59.71 -34.1c0,0 10.67,-5.88 18.77,-19.89 7.15,-12.32 8.04,-24.25 8.04,-24.25l0 -76.49 0 0zm-97.09 17.17c0,0 13.32,-2.46 24.57,4.03 11.25,6.49 17.89,10.31 17.89,10.31 0,0 0.01,9.04 0.01,22.54 0,10.82 -9.16,22.04 -9.16,22.04l0.02 -39.69 -33.33 -19.23 0 0zm52.77 87.05l-19.44 11.14 0 -10.45 15.13 -8.66c14.4,-10.38 16.78,-25.69 16.78,-30.99l-0.06 -47.02 -41.25 -23.75c0,0 -6.27,-4.11 -17.55,-4.11 -11.27,0 -17.41,3.8 -17.41,3.8l-14.49 8.33 -9.15 -5.29 20.02 -11.43c0,0 7.84,-4.35 20.96,-4.35 12.06,0 21.44,4.71 21.44,4.71l46.58 26.9 -0.06 51.32c0.33,7.89 -3.34,27.16 -21.5,39.85l0 0 0 0z"/>
  <path id="path10" class="fil0" d="M0 74.4l63.6 36.49 -0.06 10.87 -36.18 -20.74 -22.76 12.94 58.91 33.95 0.03 10.47 -63.1 -36.31c0.16,4.25 4.01,17.36 11.4,27.51 7.48,10.27 16.03,14.64 16.03,14.64l58.33 33.58 0 -100.15 -86.15 -49.47 -0.05 26.22 0 0z"/>
 </g>
</svg>
