<svg xmlns="http://www.w3.org/2000/svg" width="183" height="32" fill="none" viewBox="0 0 183 32">
  <path fill="#000" d="M12.918 30.434C6.121 29.073 1 23.066 1 15.86h13.998l-2.08 14.573ZM15.846 1c6.088 0 11.32 3.668 13.611 8.917h-5.66l-.849 5.944h7.744c0 7.175-5.079 13.162-11.834 14.556l2.926-20.5H2.235C4.526 4.668 9.758 1 15.845 1Zm106.873 8.525c4.701 0 7.755 2.311 7.755 6.337-.001 4.026-3.056 6.336-7.755 6.336-4.701 0-7.738-2.31-7.739-6.336 0-4.026 3.039-6.337 7.739-6.337Zm35.802 0c4.7 0 7.754 2.311 7.754 6.337s-3.054 6.336-7.754 6.336c-4.7 0-7.739-2.31-7.739-6.336s3.039-6.337 7.739-6.337Zm-107.102 3.16H46.48v9.123h-3.46v-9.123h-4.904V9.916H51.42v2.769Zm6.8 5.402 2.834-8.171h3.19l2.833 8.17 2.597-8.17h3.478l-4.327 11.892H65.38l-2.766-8.274-2.783 8.274H56.42L52.076 9.916h3.546l2.597 8.17Zm19.59 3.72h-3.461V9.917h3.462v11.892Zm13.138-4.62V9.915h3.343v11.892h-3.037l-7.67-7.816v7.816H80.24V9.916h3.665l7.042 7.27Zm14.058-1.563 4.496-5.708h3.683v11.892h-3.445v-7.594l-4.734 5.81h-.17l-4.735-5.81v7.594h-3.342V9.916h3.784l4.463 5.708Zm39.316-2.94h-4.937v9.124h-3.463v-9.123h-4.903V9.916h13.303v2.769Zm4.675 9.124h-3.462V9.916h3.462v11.892Zm29.775-4.622v-7.27h3.343v11.892h-3.037l-7.671-7.816v7.816h-3.342V9.916h3.665l7.042 7.27Zm-56.052-4.841c-2.596 0-4.226 1.274-4.226 3.516s1.612 3.517 4.226 3.517c2.613 0 4.224-1.274 4.224-3.517 0-2.242-1.611-3.516-4.224-3.516Zm35.802 0c-2.596 0-4.226 1.274-4.226 3.516s1.613 3.517 4.226 3.517 4.225-1.274 4.225-3.517c0-2.242-1.612-3.516-4.225-3.516Z"/>
</svg>